<svg width="" viewBox="0 0 323 203" fill="none" xmlns="http://www.w3.org/2000/svg">
    <path d="M43.5205 148.737C43.5205 149.942 43.1565 150.886 42.4286 151.568C41.7022 152.261 40.7338 152.608 39.5232 152.608C39.1375 152.608 38.7178 152.551 38.2643 152.438C37.8123 152.335 37.3604 152.176 36.9085 151.96C37.199 151.403 37.425 150.858 37.5864 150.323C37.7316 149.8 37.8043 149.306 37.8043 148.84C37.8043 148.146 37.6267 147.612 37.2716 147.237C36.9327 146.862 36.4081 146.674 35.6979 146.674C33.5028 146.674 31.3569 148.465 29.2602 152.045C27.1442 155.626 26.0862 159.02 26.0862 162.225C26.0862 163.839 26.4824 164.982 27.2749 165.653C28.0481 166.323 29.4604 166.659 31.5118 166.659C33.8506 166.659 36.0135 166.283 38.0004 165.533C39.9679 164.772 42.2268 163.368 44.777 161.321L47.3434 161.321C44.4381 164.641 41.2826 167.102 37.8769 168.705C34.4728 170.308 30.7444 171.109 26.6915 171.109C22.85 171.109 19.9366 170.404 17.9513 168.995C15.9838 167.585 15 165.488 15 162.703C15 160.691 15.435 158.559 16.305 156.308C17.1766 154.046 18.3871 152.034 19.9366 150.272C21.7928 148.158 24.0121 146.566 26.5946 145.498C29.161 144.418 32.0267 143.878 35.1919 143.878C37.9342 143.878 40.0075 144.293 41.4117 145.123C42.8175 145.952 43.5205 147.157 43.5205 148.737ZM58.7564 150.698L52.7521 170.785L41.9298 170.785L49.8952 144.355L60.6933 144.355L59.7248 147.629C61.9216 146.333 63.6567 145.464 64.9302 145.02C66.2053 144.577 67.4966 144.355 68.8039 144.355C70.3534 144.355 71.6043 144.736 72.5566 145.498C73.5089 146.248 73.9851 147.186 73.9851 148.311C73.9851 149.414 73.4847 150.335 72.484 151.074C71.4833 151.812 70.184 152.182 68.586 152.182C67.7306 152.182 67.0696 152.04 66.6032 151.756C66.1173 151.471 65.7776 150.892 65.5839 150.016C65.4225 149.448 65.2449 149.084 65.0512 148.925C64.8576 148.766 64.5832 148.686 64.2281 148.686C63.3726 148.686 62.5737 148.811 61.8312 149.061C61.0726 149.312 60.0477 149.857 58.7564 150.698ZM85.5482 165.977C86.791 165.977 87.9128 165.607 88.9135 164.868C89.9143 164.129 90.7374 163.055 91.3831 161.645L96.661 144.355L107.459 144.355L100.026 168.875C102.53 168.25 104.491 167.363 105.91 166.215C107.346 165.067 108.541 163.436 109.493 161.321L112.643 161.321C111.479 164.004 109.84 166.153 107.725 167.767C105.595 169.393 102.803 170.541 99.3509 171.211L98.2347 175.014C97.3309 177.969 95.7499 180.209 93.4918 181.732C91.2467 183.244 88.3244 184 84.725 184C82.1587 184 80.1169 183.54 78.5997 182.619C77.0663 181.709 76.2996 180.459 76.2996 178.867C76.2996 177.14 77.3165 175.616 79.3502 174.298C81.3856 172.979 84.4523 171.876 88.5504 170.99L89.4462 168.142C88.1872 169.131 86.8233 169.87 85.3545 170.359C83.8696 170.859 82.2313 171.109 80.4397 171.109C77.9379 171.109 75.9776 170.552 74.5589 169.438C73.1207 168.324 72.4017 166.767 72.4017 164.766C72.4017 164.3 72.4501 163.777 72.5469 163.197C72.6615 162.617 72.8149 161.992 73.007 161.321L78.1155 144.355L88.9135 144.355L83.5145 162.328C83.4661 162.544 83.4177 162.765 83.3692 162.993C83.3208 163.22 83.2966 163.442 83.2966 163.658C83.2966 164.396 83.4822 164.965 83.8535 165.363C84.2247 165.772 84.7896 165.977 85.5482 165.977ZM87.3398 175.167L87.7998 173.633C85.298 174.303 83.4419 175.002 82.2313 175.73C81.0369 176.446 80.4397 177.248 80.4397 178.134C80.4397 178.589 80.6907 178.993 81.1927 179.345C81.6914 179.697 82.2878 179.874 82.9819 179.874C83.8373 179.874 84.6686 179.453 85.4756 178.612C86.2665 177.759 86.8879 176.611 87.3398 175.167ZM123.528 150.494L119.097 165.294C119.291 165.681 119.638 165.977 120.138 166.181C120.639 166.397 121.244 166.505 121.954 166.505C125.102 166.505 127.635 165.079 129.554 162.225C131.492 159.372 132.462 156.058 132.462 152.284C132.462 150.84 132.154 149.749 131.539 149.01C130.944 148.271 130 147.902 128.709 147.902C127.805 147.902 126.877 148.141 125.925 148.618C124.972 149.084 124.174 149.709 123.528 150.494ZM117.887 169.199L113.989 182.09L102.658 184L115.199 142.394L125.997 142.394L124.787 146.367C126.046 145.628 127.402 145.066 128.854 144.679C130.307 144.293 131.88 144.099 133.573 144.099C136.577 144.099 138.853 144.804 140.4 146.214C141.952 147.612 142.727 149.687 142.727 152.438C142.727 157.837 141.088 162.299 137.81 165.823C134.535 169.347 130.024 171.109 124.278 171.109C122.681 171.109 121.341 170.95 120.259 170.632C119.178 170.313 118.387 169.836 117.887 169.199ZM146.795 146.47L147.373 144.355L149.867 144.355L152.119 137.057L163.231 136L160.665 144.355L165.168 144.355L164.563 146.47L160.06 146.47L155.268 162.328C155.17 162.646 155.097 162.936 155.048 163.197C155 163.459 154.975 163.731 154.975 164.016C154.975 164.72 155.21 165.226 155.678 165.533C156.146 165.829 156.937 165.977 158.05 165.977C159.438 165.977 160.762 165.545 162.021 164.681C163.281 163.817 164.21 162.697 164.805 161.321L167.953 161.321C166.356 164.527 164.202 166.96 161.491 168.62C158.794 170.279 155.694 171.109 152.191 171.109C149.691 171.109 147.73 170.552 146.308 169.438C144.871 168.324 144.153 166.767 144.153 164.766C144.153 164.3 144.202 163.777 144.298 163.197C144.411 162.617 144.565 161.992 144.758 161.321L149.262 146.47L146.795 146.47ZM162.781 162.652C162.781 160.639 163.241 158.502 164.161 156.24C165.083 153.989 166.351 151.983 167.965 150.221C169.805 148.141 172.024 146.566 174.623 145.498C177.236 144.418 180.141 143.878 183.339 143.878C186.533 143.878 188.937 144.583 190.551 145.992C192.151 147.402 192.95 149.516 192.95 152.335C193.046 152.369 193.159 152.398 193.289 152.421C193.402 152.432 193.563 152.438 193.771 152.438C195.321 152.438 197.169 152.142 199.318 151.551C201.479 150.948 203.48 150.187 205.32 149.266L206 150.698C204.596 151.756 202.731 152.671 200.405 153.444C198.082 154.217 195.524 154.762 192.73 155.081C192.118 159.844 190.166 163.686 186.873 166.607C183.563 169.529 179.536 170.99 174.792 170.99C170.884 170.99 167.906 170.285 165.856 168.875C163.806 167.466 162.781 165.391 162.781 162.652ZM183.944 147.101C181.537 147.101 179.269 148.811 177.138 152.233C175.008 155.655 173.942 158.894 173.942 161.952C173.942 163.612 174.209 164.743 174.741 165.346C175.274 165.937 176.291 166.232 177.792 166.232C179.632 166.232 181.391 165.175 183.07 163.061C184.75 160.946 185.888 158.343 186.484 155.251C185.79 155.137 185.281 154.899 184.958 154.535C184.637 154.16 184.476 153.654 184.476 153.017C184.476 152.347 184.67 151.767 185.058 151.278C185.461 150.789 186.042 150.42 186.801 150.17C186.688 149.044 186.421 148.254 186.002 147.8C185.581 147.334 184.895 147.101 183.944 147.101Z" fill="#8B60ED"/>
    <path d="M16.8859 114.306C18.2605 111.886 19.91 108.769 21.8344 104.956C23.7589 101.142 25.7749 97.0172 27.8827 92.5804C29.9904 88.1436 32.1439 83.5968 34.3433 78.94C36.5427 74.2831 38.6046 69.8647 40.529 65.6845C42.4535 61.5044 44.1259 57.7643 45.5463 54.4642C46.9667 51.1641 47.9977 48.634 48.6392 46.874C42.8658 48.7807 37.9173 51.6774 33.7935 55.5642C29.6697 59.451 26.5539 64.3278 24.4462 70.1947C22.3384 69.608 20.414 68.563 18.6728 67.0596C16.9317 65.5562 15.7862 63.6678 15.2363 61.3944C16.1527 58.021 17.871 54.9409 20.3911 52.1541C22.9112 49.3674 26.0957 46.984 29.9446 45.0039C33.7935 43.0238 38.238 41.5021 43.2782 40.4388C48.3184 39.3754 53.7252 38.8437 59.4986 38.8437C66.8298 38.8437 73.5653 39.7054 79.7052 41.4288C85.8451 43.1522 91.1144 45.5539 95.5132 48.634C99.9119 51.7141 103.348 55.4176 105.823 59.7444C108.297 64.0712 109.534 68.8746 109.534 74.1548C109.534 81.3417 107.885 88.1986 104.586 94.7254C101.286 101.252 96.819 107.009 91.1832 111.996C85.5473 116.983 79.0179 120.961 71.5951 123.931C64.1722 126.901 56.3828 128.387 48.2268 128.387C40.7123 128.387 34.2746 127.195 28.9136 124.811C23.5527 122.428 19.5434 118.926 16.8859 114.306ZM65.4093 44.3439C60.8273 44.3439 56.4744 44.8572 52.3506 45.8839C56.3828 47.0573 59.7276 48.2857 62.3852 49.569C65.0428 50.8524 66.8756 51.8608 67.8836 52.5941C67.1505 53.4008 66.0737 54.8309 64.6533 56.8843C63.2329 58.9377 61.5834 61.4311 59.7047 64.3645C57.8261 67.2979 55.8329 70.5064 53.7252 73.9898C51.6175 77.4732 49.5556 81.0484 47.5395 84.7151C42.316 94.0288 38.5359 101.362 36.199 106.716C33.8622 112.069 32.6938 115.773 32.6938 117.826C33.9767 118.193 35.5346 118.45 37.3674 118.596C39.2002 118.743 41.1705 118.816 43.2782 118.816C50.7011 118.816 57.7345 117.441 64.3784 114.691C71.0223 111.941 76.8415 108.256 81.8359 103.636C86.8303 99.0156 90.7708 93.6438 93.6574 87.5202C96.5441 81.3967 97.9874 74.9615 97.9874 68.2146C97.9874 60.6611 95.055 54.7942 89.19 50.6141C83.325 46.4339 75.3981 44.3439 65.4093 44.3439ZM160.807 75.5849C161.723 75.5849 162.8 75.7132 164.037 75.9699C165.274 76.2265 166.397 76.5565 167.405 76.9599C168.413 77.3632 169.261 77.7849 169.948 78.2249C170.635 78.6649 170.979 79.0683 170.979 79.435C169.146 82.5151 167.451 85.6135 165.893 88.7303C164.335 91.847 163.006 94.8355 161.907 97.6955C160.807 100.556 159.959 103.232 159.363 105.726C158.768 108.219 158.47 110.383 158.47 112.216C158.47 114.269 158.745 115.974 159.295 117.331C159.845 118.688 160.761 119.66 162.044 120.246C160.944 120.833 159.524 121.31 157.783 121.676C156.042 122.043 154.484 122.226 153.109 122.226C148.16 122.226 145.686 119.513 145.686 114.086C145.686 109.906 147.427 104.186 150.91 96.9255C149.077 100.299 146.969 103.471 144.587 106.441C142.204 109.411 139.775 112.033 137.301 114.306C134.827 116.579 132.33 118.431 129.81 119.861C127.289 121.291 124.975 122.153 122.868 122.446C119.477 122.3 116.728 120.998 114.62 118.541C112.512 116.084 111.459 112.949 111.459 109.136C111.459 105.029 112.558 100.702 114.758 96.1555C116.957 91.6087 119.775 87.3919 123.211 83.5051C126.648 79.6183 130.382 76.3732 134.414 73.7698C138.447 71.1664 142.341 69.7913 146.099 69.6447C147.015 69.8647 148.046 70.3047 149.191 70.9647C150.337 71.6247 151.437 72.3948 152.49 73.2748C153.544 74.1548 154.438 75.0532 155.171 75.9699C155.904 76.8866 156.316 77.6749 156.408 78.3349C152.742 78.775 148.962 80.205 145.068 82.6251C141.173 85.0451 137.645 87.9602 134.483 91.3703C131.322 94.7805 128.733 98.4289 126.717 102.316C124.701 106.202 123.693 109.833 123.693 113.206C123.693 114.599 124.334 115.479 125.617 115.846C128.275 115.406 131.344 113.591 134.827 110.401C138.309 107.211 142.525 102.279 147.473 95.6055C148.39 94.2854 149.421 92.8187 150.566 91.2053C151.712 89.592 152.88 87.9052 154.071 86.1452C155.263 84.3851 156.431 82.6067 157.577 80.81C158.722 79.0133 159.799 77.2716 160.807 75.5849ZM177.577 112.656C177.577 111.996 177.646 111.171 177.783 110.181C177.921 109.191 178.173 107.871 178.539 106.221C178.906 104.571 179.387 102.572 179.983 100.226C180.578 97.8789 181.334 95.0555 182.251 91.7554C182.434 91.022 182.846 89.8486 183.488 88.2352C184.129 86.6219 184.977 84.9168 186.031 83.1201C187.085 81.3234 188.368 79.5816 189.88 77.8949C191.392 76.2082 193.202 74.9615 195.309 74.1548C196.867 74.4482 198.929 75.1998 201.495 76.4099C204.061 77.6199 206.26 79.2883 208.093 81.415C205.985 83.3218 204.221 85.2285 202.801 87.1352C201.381 89.0419 200.098 91.022 198.952 93.0754C197.807 95.1288 196.753 97.2555 195.79 99.4556C194.828 101.656 193.751 103.966 192.56 106.386C191.552 108.439 190.636 110.548 189.811 112.711C188.986 114.874 188.528 116.763 188.436 118.376C188.436 119.696 188.413 120.631 188.368 121.181C188.322 121.731 188.07 122.006 187.612 122.006C187.245 122.006 186.512 121.823 185.412 121.456C184.313 121.09 183.19 120.521 182.044 119.751C180.899 118.981 179.868 118.01 178.952 116.836C178.035 115.663 177.577 114.269 177.577 112.656ZM209.743 112.986C209.743 109.759 210.705 105.231 212.629 99.4006C214.554 93.5704 217.257 86.7685 220.74 78.995C226.421 66.6012 231.759 56.2792 236.754 48.029C241.748 39.7787 246.628 33.3435 251.393 28.7234C252.493 28.8701 253.845 29.2367 255.448 29.8234C257.052 30.4101 258.633 31.0518 260.191 31.7485C261.749 32.4452 263.146 33.1602 264.383 33.8936C265.62 34.6269 266.422 35.2136 266.789 35.6536C259.641 42.4005 253.363 49.6607 247.957 57.4343C242.55 65.2079 237.601 74.1181 233.111 84.1651C229.262 92.8187 226.33 100.611 224.313 107.541C222.297 114.471 221.289 120.246 221.289 124.866C221.289 126.113 221.289 126.883 221.289 127.176C221.289 127.47 221.335 127.763 221.427 128.056C220.144 127.91 219.044 127.653 218.128 127.286C217.211 126.92 216.616 126.48 216.341 125.966C216.158 125.6 215.653 125.068 214.829 124.371C214.004 123.675 213.271 123.143 212.629 122.776C211.805 122.336 211.117 121.181 210.567 119.311C210.018 117.441 209.743 115.333 209.743 112.986ZM294.006 102.976C291.898 108.329 289.79 113.206 287.683 117.606C285.575 122.006 283.33 126.058 280.947 129.762C278.564 133.465 275.999 136.875 273.249 139.992C270.5 143.109 267.476 146.06 264.177 148.847C259.962 152.367 255.609 155.062 251.118 156.932C246.628 158.802 242.138 159.737 237.647 159.737C235.356 159.737 233.088 159.536 230.843 159.132C228.598 158.729 226.49 158.179 224.52 157.482C222.549 156.786 220.808 155.979 219.296 155.062C217.784 154.146 216.707 153.174 216.066 152.147C216.066 151.267 216.707 150.497 217.99 149.837C219.09 150.644 220.006 151.267 220.74 151.707C221.473 152.147 222.183 152.514 222.87 152.807C223.557 153.101 224.291 153.284 225.07 153.357C225.848 153.431 226.742 153.467 227.75 153.467C232.973 153.467 238.082 152.239 243.077 149.782C248.071 147.325 252.791 143.842 257.235 139.332C261.68 134.822 265.735 129.358 269.4 122.941C273.066 116.524 276.182 109.356 278.748 101.436C277.556 102.902 276.09 104.699 274.349 106.826C272.608 108.953 270.683 111.061 268.576 113.151C266.468 115.241 264.292 117.129 262.046 118.816C259.801 120.503 257.625 121.64 255.517 122.226C254.051 122.153 252.516 121.915 250.912 121.511C249.308 121.108 247.796 120.54 246.376 119.806C244.955 119.073 243.695 118.193 242.596 117.166C241.496 116.139 240.763 114.966 240.396 113.646C240.396 111.519 240.488 109.814 240.671 108.531C240.855 107.248 241.175 105.836 241.633 104.296C242.458 101.509 243.673 98.3556 245.276 94.8355C246.88 91.3153 248.759 87.8502 250.912 84.4401C253.066 81.03 255.448 77.8399 258.06 74.8698C260.672 71.8997 263.398 69.5713 266.239 67.8846C266.972 67.8846 267.888 67.9396 268.988 68.0496C270.088 68.1596 271.233 68.3613 272.425 68.6546C273.616 68.948 274.761 69.2963 275.861 69.6997C276.961 70.103 277.923 70.6347 278.748 71.2947C277.74 72.0281 275.54 74.4848 272.15 78.6649C268.759 82.8451 265.002 88.8586 260.878 96.7055C260.42 97.5122 259.87 98.6856 259.228 100.226C258.587 101.766 257.968 103.379 257.373 105.066C256.777 106.752 256.25 108.403 255.792 110.016C255.334 111.629 255.105 112.913 255.105 113.866C255.105 114.453 255.219 114.893 255.448 115.186C255.677 115.479 255.884 115.699 256.067 115.846C257.716 115.626 259.916 114.544 262.665 112.601C265.414 110.658 268.53 107.633 272.012 103.526C274.212 100.886 276.228 98.2639 278.06 95.6605C279.893 93.0571 281.703 90.4353 283.49 87.7952C285.277 85.1551 287.133 82.4417 289.057 79.655C290.982 76.8682 293.044 74.0081 295.243 71.0747C296.434 71.0747 297.717 71.1847 299.092 71.4047C300.467 71.6247 301.795 71.8997 303.078 72.2298C304.361 72.5598 305.484 72.9264 306.446 73.3298C307.408 73.7331 308.118 74.1548 308.577 74.5948C305.736 79.435 303.078 84.1651 300.604 88.7853C298.13 93.4054 295.93 98.1356 294.006 102.976Z" fill="white"/>
    <path d="M215.493 70.2074L209.106 55.0486L198.462 42.6095L204.85 57.7693L215.493 70.2074Z" fill="#F5D451"/>
    <path d="M190.278 67.0843L208.062 58.1672L223.677 45.7331L205.892 54.6505L190.278 67.0843Z" fill="#F5D451"/>
    <path d="M43.5205 148.737C43.5205 149.942 43.1565 150.886 42.4286 151.568C41.7022 152.261 40.7338 152.608 39.5232 152.608C39.1375 152.608 38.7178 152.551 38.2643 152.438C37.8123 152.335 37.3604 152.176 36.9085 151.96C37.199 151.403 37.425 150.858 37.5864 150.323C37.7316 149.8 37.8043 149.306 37.8043 148.84C37.8043 148.146 37.6267 147.612 37.2716 147.237C36.9327 146.862 36.4081 146.674 35.6979 146.674C33.5028 146.674 31.3569 148.465 29.2602 152.045C27.1442 155.626 26.0862 159.02 26.0862 162.225C26.0862 163.839 26.4824 164.982 27.2749 165.653C28.0481 166.323 29.4604 166.659 31.5118 166.659C33.8506 166.659 36.0135 166.283 38.0004 165.533C39.9679 164.772 42.2268 163.368 44.777 161.321L47.3434 161.321C44.4381 164.641 41.2826 167.102 37.8769 168.705C34.4728 170.308 30.7444 171.109 26.6915 171.109C22.85 171.109 19.9366 170.404 17.9513 168.995C15.9838 167.585 15 165.488 15 162.703C15 160.691 15.435 158.559 16.305 156.308C17.1766 154.046 18.3871 152.034 19.9366 150.272C21.7928 148.158 24.0121 146.566 26.5946 145.498C29.161 144.418 32.0267 143.878 35.1919 143.878C37.9342 143.878 40.0075 144.293 41.4117 145.123C42.8175 145.952 43.5205 147.157 43.5205 148.737ZM58.7564 150.698L52.7521 170.785L41.9298 170.785L49.8952 144.355L60.6933 144.355L59.7248 147.629C61.9216 146.333 63.6567 145.464 64.9302 145.02C66.2053 144.577 67.4966 144.355 68.8039 144.355C70.3534 144.355 71.6043 144.736 72.5566 145.498C73.5089 146.248 73.9851 147.186 73.9851 148.311C73.9851 149.414 73.4847 150.335 72.484 151.074C71.4833 151.812 70.184 152.182 68.586 152.182C67.7306 152.182 67.0696 152.04 66.6032 151.756C66.1173 151.471 65.7776 150.892 65.5839 150.016C65.4225 149.448 65.2449 149.084 65.0512 148.925C64.8576 148.766 64.5832 148.686 64.2281 148.686C63.3726 148.686 62.5737 148.811 61.8312 149.061C61.0726 149.312 60.0477 149.857 58.7564 150.698ZM85.5482 165.977C86.791 165.977 87.9128 165.607 88.9135 164.868C89.9143 164.129 90.7374 163.055 91.3831 161.645L96.661 144.355L107.459 144.355L100.026 168.875C102.53 168.25 104.491 167.363 105.91 166.215C107.346 165.067 108.541 163.436 109.493 161.321L112.643 161.321C111.479 164.004 109.84 166.153 107.725 167.767C105.595 169.393 102.803 170.541 99.3509 171.211L98.2347 175.014C97.3309 177.969 95.7499 180.209 93.4918 181.732C91.2467 183.244 88.3244 184 84.725 184C82.1587 184 80.1169 183.54 78.5997 182.619C77.0663 181.709 76.2996 180.459 76.2996 178.867C76.2996 177.14 77.3165 175.616 79.3502 174.298C81.3856 172.979 84.4523 171.876 88.5504 170.99L89.4462 168.142C88.1872 169.131 86.8233 169.87 85.3545 170.359C83.8696 170.859 82.2313 171.109 80.4397 171.109C77.9379 171.109 75.9776 170.552 74.5589 169.438C73.1207 168.324 72.4017 166.767 72.4017 164.766C72.4017 164.3 72.4501 163.777 72.5469 163.197C72.6615 162.617 72.8149 161.992 73.007 161.321L78.1155 144.355L88.9135 144.355L83.5145 162.328C83.4661 162.544 83.4177 162.765 83.3692 162.993C83.3208 163.22 83.2966 163.442 83.2966 163.658C83.2966 164.396 83.4822 164.965 83.8535 165.363C84.2247 165.772 84.7896 165.977 85.5482 165.977ZM87.3398 175.167L87.7998 173.633C85.298 174.303 83.4419 175.002 82.2313 175.73C81.0369 176.446 80.4397 177.248 80.4397 178.134C80.4397 178.589 80.6907 178.993 81.1927 179.345C81.6914 179.697 82.2878 179.874 82.9819 179.874C83.8373 179.874 84.6686 179.453 85.4756 178.612C86.2665 177.759 86.8879 176.611 87.3398 175.167ZM123.528 150.494L119.097 165.294C119.291 165.681 119.638 165.977 120.138 166.181C120.639 166.397 121.244 166.505 121.954 166.505C125.102 166.505 127.635 165.079 129.554 162.225C131.492 159.372 132.462 156.058 132.462 152.284C132.462 150.84 132.154 149.749 131.539 149.01C130.944 148.271 130 147.902 128.709 147.902C127.805 147.902 126.877 148.141 125.925 148.618C124.972 149.084 124.174 149.709 123.528 150.494ZM117.887 169.199L113.989 182.09L102.658 184L115.199 142.394L125.997 142.394L124.787 146.367C126.046 145.628 127.402 145.066 128.854 144.679C130.307 144.293 131.88 144.099 133.573 144.099C136.577 144.099 138.853 144.804 140.4 146.214C141.952 147.612 142.727 149.687 142.727 152.438C142.727 157.837 141.088 162.299 137.81 165.823C134.535 169.347 130.024 171.109 124.278 171.109C122.681 171.109 121.341 170.95 120.259 170.632C119.178 170.313 118.387 169.836 117.887 169.199ZM146.795 146.47L147.373 144.355L149.867 144.355L152.119 137.057L163.231 136L160.665 144.355L165.168 144.355L164.563 146.47L160.06 146.47L155.268 162.328C155.17 162.646 155.097 162.936 155.048 163.197C155 163.459 154.975 163.731 154.975 164.016C154.975 164.72 155.21 165.226 155.678 165.533C156.146 165.829 156.937 165.977 158.05 165.977C159.438 165.977 160.762 165.545 162.021 164.681C163.281 163.817 164.21 162.697 164.805 161.321L167.953 161.321C166.356 164.527 164.202 166.96 161.491 168.62C158.794 170.279 155.694 171.109 152.191 171.109C149.691 171.109 147.73 170.552 146.308 169.438C144.871 168.324 144.153 166.767 144.153 164.766C144.153 164.3 144.202 163.777 144.298 163.197C144.411 162.617 144.565 161.992 144.758 161.321L149.262 146.47L146.795 146.47ZM162.781 162.652C162.781 160.639 163.241 158.502 164.161 156.24C165.083 153.989 166.351 151.983 167.965 150.221C169.805 148.141 172.024 146.566 174.623 145.498C177.236 144.418 180.141 143.878 183.339 143.878C186.533 143.878 188.937 144.583 190.551 145.992C192.151 147.402 192.95 149.516 192.95 152.335C193.046 152.369 193.159 152.398 193.289 152.421C193.402 152.432 193.563 152.438 193.771 152.438C195.321 152.438 197.169 152.142 199.318 151.551C201.479 150.948 203.48 150.187 205.32 149.266L206 150.698C204.596 151.756 202.731 152.671 200.405 153.444C198.082 154.217 195.524 154.762 192.73 155.081C192.118 159.844 190.166 163.686 186.873 166.607C183.563 169.529 179.536 170.99 174.792 170.99C170.884 170.99 167.906 170.285 165.856 168.875C163.806 167.466 162.781 165.391 162.781 162.652ZM183.944 147.101C181.537 147.101 179.269 148.811 177.138 152.233C175.008 155.655 173.942 158.894 173.942 161.952C173.942 163.612 174.209 164.743 174.741 165.346C175.274 165.937 176.291 166.232 177.792 166.232C179.632 166.232 181.391 165.175 183.07 163.061C184.75 160.946 185.888 158.343 186.484 155.251C185.79 155.137 185.281 154.899 184.958 154.535C184.637 154.16 184.476 153.654 184.476 153.017C184.476 152.347 184.67 151.767 185.058 151.278C185.461 150.789 186.042 150.42 186.801 150.17C186.688 149.044 186.421 148.254 186.002 147.8C185.581 147.334 184.895 147.101 183.944 147.101Z" fill="#8B60ED"/>
    <path d="M16.8859 114.306C18.2605 111.886 19.91 108.769 21.8344 104.956C23.7589 101.142 25.7749 97.0172 27.8827 92.5804C29.9904 88.1436 32.1439 83.5968 34.3433 78.94C36.5427 74.2831 38.6046 69.8647 40.529 65.6845C42.4535 61.5044 44.1259 57.7643 45.5463 54.4642C46.9667 51.1641 47.9977 48.634 48.6392 46.874C42.8658 48.7807 37.9173 51.6774 33.7935 55.5642C29.6697 59.451 26.5539 64.3278 24.4462 70.1947C22.3384 69.608 20.414 68.563 18.6728 67.0596C16.9317 65.5562 15.7862 63.6678 15.2363 61.3944C16.1527 58.021 17.871 54.9409 20.3911 52.1541C22.9112 49.3674 26.0957 46.984 29.9446 45.0039C33.7935 43.0238 38.238 41.5021 43.2782 40.4388C48.3184 39.3754 53.7252 38.8437 59.4986 38.8437C66.8298 38.8437 73.5653 39.7054 79.7052 41.4288C85.8451 43.1522 91.1144 45.5539 95.5132 48.634C99.9119 51.7141 103.348 55.4176 105.823 59.7444C108.297 64.0712 109.534 68.8746 109.534 74.1548C109.534 81.3417 107.885 88.1986 104.586 94.7254C101.286 101.252 96.819 107.009 91.1832 111.996C85.5473 116.983 79.0179 120.961 71.5951 123.931C64.1722 126.901 56.3828 128.387 48.2268 128.387C40.7123 128.387 34.2746 127.195 28.9136 124.811C23.5527 122.428 19.5434 118.926 16.8859 114.306ZM65.4093 44.3439C60.8273 44.3439 56.4744 44.8572 52.3506 45.8839C56.3828 47.0573 59.7276 48.2857 62.3852 49.569C65.0428 50.8524 66.8756 51.8608 67.8836 52.5941C67.1505 53.4008 66.0737 54.8309 64.6533 56.8843C63.2329 58.9377 61.5834 61.4311 59.7047 64.3645C57.8261 67.2979 55.8329 70.5064 53.7252 73.9898C51.6175 77.4732 49.5556 81.0484 47.5395 84.7151C42.316 94.0288 38.5359 101.362 36.199 106.716C33.8622 112.069 32.6938 115.773 32.6938 117.826C33.9767 118.193 35.5346 118.45 37.3674 118.596C39.2002 118.743 41.1705 118.816 43.2782 118.816C50.7011 118.816 57.7345 117.441 64.3784 114.691C71.0223 111.941 76.8415 108.256 81.8359 103.636C86.8303 99.0156 90.7708 93.6438 93.6574 87.5202C96.5441 81.3967 97.9874 74.9615 97.9874 68.2146C97.9874 60.6611 95.055 54.7942 89.19 50.6141C83.325 46.4339 75.3981 44.3439 65.4093 44.3439ZM160.807 75.5849C161.723 75.5849 162.8 75.7132 164.037 75.9699C165.274 76.2265 166.397 76.5565 167.405 76.9599C168.413 77.3632 169.261 77.7849 169.948 78.2249C170.635 78.6649 170.979 79.0683 170.979 79.435C169.146 82.5151 167.451 85.6135 165.893 88.7303C164.335 91.847 163.006 94.8355 161.907 97.6955C160.807 100.556 159.959 103.232 159.363 105.726C158.768 108.219 158.47 110.383 158.47 112.216C158.47 114.269 158.745 115.974 159.295 117.331C159.845 118.688 160.761 119.66 162.044 120.246C160.944 120.833 159.524 121.31 157.783 121.676C156.042 122.043 154.484 122.226 153.109 122.226C148.16 122.226 145.686 119.513 145.686 114.086C145.686 109.906 147.427 104.186 150.91 96.9255C149.077 100.299 146.969 103.471 144.587 106.441C142.204 109.411 139.775 112.033 137.301 114.306C134.827 116.579 132.33 118.431 129.81 119.861C127.289 121.291 124.975 122.153 122.868 122.446C119.477 122.3 116.728 120.998 114.62 118.541C112.512 116.084 111.459 112.949 111.459 109.136C111.459 105.029 112.558 100.702 114.758 96.1555C116.957 91.6087 119.775 87.3919 123.211 83.5051C126.648 79.6183 130.382 76.3732 134.414 73.7698C138.447 71.1664 142.341 69.7913 146.099 69.6447C147.015 69.8647 148.046 70.3047 149.191 70.9647C150.337 71.6247 151.437 72.3948 152.49 73.2748C153.544 74.1548 154.438 75.0532 155.171 75.9699C155.904 76.8866 156.316 77.6749 156.408 78.3349C152.742 78.775 148.962 80.205 145.068 82.6251C141.173 85.0451 137.645 87.9602 134.483 91.3703C131.322 94.7805 128.733 98.4289 126.717 102.316C124.701 106.202 123.693 109.833 123.693 113.206C123.693 114.599 124.334 115.479 125.617 115.846C128.275 115.406 131.344 113.591 134.827 110.401C138.309 107.211 142.525 102.279 147.473 95.6055C148.39 94.2854 149.421 92.8187 150.566 91.2053C151.712 89.592 152.88 87.9052 154.071 86.1452C155.263 84.3851 156.431 82.6067 157.577 80.81C158.722 79.0133 159.799 77.2716 160.807 75.5849ZM177.577 112.656C177.577 111.996 177.646 111.171 177.783 110.181C177.921 109.191 178.173 107.871 178.539 106.221C178.906 104.571 179.387 102.572 179.983 100.226C180.578 97.8789 181.334 95.0555 182.251 91.7554C182.434 91.022 182.846 89.8486 183.488 88.2352C184.129 86.6219 184.977 84.9168 186.031 83.1201C187.085 81.3234 188.368 79.5816 189.88 77.8949C191.392 76.2082 193.202 74.9615 195.309 74.1548C196.867 74.4482 198.929 75.1998 201.495 76.4099C204.061 77.6199 206.26 79.2883 208.093 81.415C205.985 83.3218 204.221 85.2285 202.801 87.1352C201.381 89.0419 200.098 91.022 198.952 93.0754C197.807 95.1288 196.753 97.2555 195.79 99.4556C194.828 101.656 193.751 103.966 192.56 106.386C191.552 108.439 190.636 110.548 189.811 112.711C188.986 114.874 188.528 116.763 188.436 118.376C188.436 119.696 188.413 120.631 188.368 121.181C188.322 121.731 188.07 122.006 187.612 122.006C187.245 122.006 186.512 121.823 185.412 121.456C184.313 121.09 183.19 120.521 182.044 119.751C180.899 118.981 179.868 118.01 178.952 116.836C178.035 115.663 177.577 114.269 177.577 112.656ZM209.743 112.986C209.743 109.759 210.705 105.231 212.629 99.4006C214.554 93.5704 217.257 86.7685 220.74 78.995C226.421 66.6012 231.759 56.2792 236.754 48.029C241.748 39.7787 246.628 33.3435 251.393 28.7234C252.493 28.8701 253.845 29.2367 255.448 29.8234C257.052 30.4101 258.633 31.0518 260.191 31.7485C261.749 32.4452 263.146 33.1602 264.383 33.8936C265.62 34.6269 266.422 35.2136 266.789 35.6536C259.641 42.4005 253.363 49.6607 247.957 57.4343C242.55 65.2079 237.601 74.1181 233.111 84.1651C229.262 92.8187 226.33 100.611 224.313 107.541C222.297 114.471 221.289 120.246 221.289 124.866C221.289 126.113 221.289 126.883 221.289 127.176C221.289 127.47 221.335 127.763 221.427 128.056C220.144 127.91 219.044 127.653 218.128 127.286C217.211 126.92 216.616 126.48 216.341 125.966C216.158 125.6 215.653 125.068 214.829 124.371C214.004 123.675 213.271 123.143 212.629 122.776C211.805 122.336 211.117 121.181 210.567 119.311C210.018 117.441 209.743 115.333 209.743 112.986ZM294.006 102.976C291.898 108.329 289.79 113.206 287.683 117.606C285.575 122.006 283.33 126.058 280.947 129.762C278.564 133.465 275.999 136.875 273.249 139.992C270.5 143.109 267.476 146.06 264.177 148.847C259.962 152.367 255.609 155.062 251.118 156.932C246.628 158.802 242.138 159.737 237.647 159.737C235.356 159.737 233.088 159.536 230.843 159.132C228.598 158.729 226.49 158.179 224.52 157.482C222.549 156.786 220.808 155.979 219.296 155.062C217.784 154.146 216.707 153.174 216.066 152.147C216.066 151.267 216.707 150.497 217.99 149.837C219.09 150.644 220.006 151.267 220.74 151.707C221.473 152.147 222.183 152.514 222.87 152.807C223.557 153.101 224.291 153.284 225.07 153.357C225.848 153.431 226.742 153.467 227.75 153.467C232.973 153.467 238.082 152.239 243.077 149.782C248.071 147.325 252.791 143.842 257.235 139.332C261.68 134.822 265.735 129.358 269.4 122.941C273.066 116.524 276.182 109.356 278.748 101.436C277.556 102.902 276.09 104.699 274.349 106.826C272.608 108.953 270.683 111.061 268.576 113.151C266.468 115.241 264.292 117.129 262.046 118.816C259.801 120.503 257.625 121.64 255.517 122.226C254.051 122.153 252.516 121.915 250.912 121.511C249.308 121.108 247.796 120.54 246.376 119.806C244.955 119.073 243.695 118.193 242.596 117.166C241.496 116.139 240.763 114.966 240.396 113.646C240.396 111.519 240.488 109.814 240.671 108.531C240.855 107.248 241.175 105.836 241.633 104.296C242.458 101.509 243.673 98.3556 245.276 94.8355C246.88 91.3153 248.759 87.8502 250.912 84.4401C253.066 81.03 255.448 77.8399 258.06 74.8698C260.672 71.8997 263.398 69.5713 266.239 67.8846C266.972 67.8846 267.888 67.9396 268.988 68.0496C270.088 68.1596 271.233 68.3613 272.425 68.6546C273.616 68.948 274.761 69.2963 275.861 69.6997C276.961 70.103 277.923 70.6347 278.748 71.2947C277.74 72.0281 275.54 74.4848 272.15 78.6649C268.759 82.8451 265.002 88.8586 260.878 96.7055C260.42 97.5122 259.87 98.6856 259.228 100.226C258.587 101.766 257.968 103.379 257.373 105.066C256.777 106.752 256.25 108.403 255.792 110.016C255.334 111.629 255.105 112.913 255.105 113.866C255.105 114.453 255.219 114.893 255.448 115.186C255.677 115.479 255.884 115.699 256.067 115.846C257.716 115.626 259.916 114.544 262.665 112.601C265.414 110.658 268.53 107.633 272.012 103.526C274.212 100.886 276.228 98.2639 278.06 95.6605C279.893 93.0571 281.703 90.4353 283.49 87.7952C285.277 85.1551 287.133 82.4417 289.057 79.655C290.982 76.8682 293.044 74.0081 295.243 71.0747C296.434 71.0747 297.717 71.1847 299.092 71.4047C300.467 71.6247 301.795 71.8997 303.078 72.2298C304.361 72.5598 305.484 72.9264 306.446 73.3298C307.408 73.7331 308.118 74.1548 308.577 74.5948C305.736 79.435 303.078 84.1651 300.604 88.7853C298.13 93.4054 295.93 98.1356 294.006 102.976Z" fill="white"/>
    <path d="M215.493 70.2074L209.106 55.0486L198.462 42.6095L204.85 57.7693L215.493 70.2074Z" fill="#F5D451"/>
    <path d="M190.278 67.0843L208.062 58.1672L223.677 45.7331L205.892 54.6505L190.278 67.0843Z" fill="#F5D451"/>
</svg>
